<?xml version="1.0" standalone="no"?><!DOCTYPE svg PUBLIC "-//W3C//DTD SVG 1.1//EN" "http://www.w3.org/Graphics/SVG/1.1/DTD/svg11.dtd"><svg t="1761580043776" class="icon" viewBox="0 0 1024 1024" version="1.1" xmlns="http://www.w3.org/2000/svg" p-id="90859" xmlns:xlink="http://www.w3.org/1999/xlink" width="200" height="200"><path d="M755.5584 178.3296c38.5024 62.7712 60.7232 136.6016 60.7232 215.6032 0 228.1472-184.9344 413.0816-413.0816 413.0816-91.2896 0-175.616-29.696-244.0192-79.8208 72.6016 118.4256 203.264 197.4784 352.4096 197.4784 228.1472 0 413.0816-184.9344 413.0816-413.0816-0.0512-136.8576-66.6112-258.0992-169.1136-333.2608z" fill="#ffa115" p-id="90860"></path><path d="M511.5392 67.7376c-244.736 0-443.8016 199.0656-443.8016 443.8016s199.0656 443.8016 443.8016 443.8016c244.736 0 443.8016-199.0656 443.8016-443.8016s-199.0656-443.8016-443.8016-443.8016z m0 826.2144c-210.8416 0-382.3616-171.52-382.3616-382.3616s171.52-382.3616 382.3616-382.3616c210.8416 0 382.3616 171.52 382.3616 382.3616s-171.52 382.3616-382.3616 382.3616z" fill="#474A54" p-id="90861"></path><path d="M321.28 316.0064h-20.9408c-16.9472 0-30.72 13.7728-30.72 30.72s13.7728 30.72 30.72 30.72h20.9408c16.9472 0 30.72-13.7728 30.72-30.72s-13.7216-30.72-30.72-30.72zM718.6944 316.0064H420.6592c-16.9472 0-30.72 13.7728-30.72 30.72s13.7728 30.72 30.72 30.72h298.0352c16.9472 0 30.72-13.7728 30.72-30.72s-13.7728-30.72-30.72-30.72zM321.28 495.5648h-20.9408c-16.9472 0-30.72 13.7728-30.72 30.72s13.7728 30.72 30.72 30.72h20.9408c16.9472 0 30.72-13.7728 30.72-30.72s-13.7216-30.72-30.72-30.72zM718.6944 495.5648H420.6592c-16.9472 0-30.72 13.7728-30.72 30.72s13.7728 30.72 30.72 30.72h298.0352c16.9472 0 30.72-13.7728 30.72-30.72s-13.7728-30.72-30.72-30.72zM321.28 655.9232h-20.9408c-16.9472 0-30.72 13.7728-30.72 30.72s13.7728 30.72 30.72 30.72h20.9408c16.9472 0 30.72-13.7728 30.72-30.72s-13.7216-30.72-30.72-30.72zM718.6944 655.9232H420.6592c-16.9472 0-30.72 13.7728-30.72 30.72s13.7728 30.72 30.72 30.72h298.0352c16.9472 0 30.72-13.7728 30.72-30.72s-13.7728-30.72-30.72-30.72z" fill="#474A54" p-id="90862"></path></svg>