<?xml version="1.0" standalone="no"?><!DOCTYPE svg PUBLIC "-//W3C//DTD SVG 1.1//EN" "http://www.w3.org/Graphics/SVG/1.1/DTD/svg11.dtd"><svg t="1762907613960" class="icon" viewBox="0 0 1024 1024" version="1.1" xmlns="http://www.w3.org/2000/svg" p-id="20240" xmlns:xlink="http://www.w3.org/1999/xlink" width="200" height="200"><path d="M525.667 777.096a180 180 0 1 0 360 0 180 180 0 1 0-360 0Z" fill="#D50000" p-id="20241"></path><path d="M903.9 546.444c0.399-58.5-31.801-113.899-77.101-140.1l1.101-176.6-179.9-29.8c-15.9-54.4-59.2-98.6-110.3-107-51.101-8.4-94.7 21.5-110.9 70.3l-179.9-29.8v167.4c57.1 18.6 101 81.399 100.9 148.3-0.1 66.9-44 114.3-100.9 113v167.4l238.509 44.083c1.288-67.474 32.305-125.218 81.701-168.907 62.729-43.51 126.538-57.289 189.808-41.34 27.112 6.598 45.011 14.768 64.707 26.982 22.468 12.365 37.745 29.225 53.247 45.859 1.434-1.629 0.67 1.47 6.54-10.091 1.468-2.89 3.595-7.487 5.963-13.215 2.367-5.728 4.976-12.585 7.407-19.995s4.687-15.373 6.346-23.313c1.658-7.936 2.722-15.85 2.772-23.163z" fill="#D50000" p-id="20242"></path><path d="M246.9 134l-126.8 91.1 181.8 37.7 36.3-113.5-91.3-15.3z" fill="#CD0000" p-id="20243"></path><path d="M344.6 199.6l116.5-86.8s27.101-23.4 66.601-20.6c38.899 2.7 76.5 27.6 99.8 64.1 17.7 27.7 20.2 44.1 20.2 44.1L520 296.7s-15-64.5-72.7-95.4c-41.5-22.3-75.5-13.6-92-6.6-6.8 2.8-10.7 4.9-10.7 4.9z m483.2 30.9L701 327l-0.9 176.6 126.7-96.7 1-176.4z m-2.6 606l-128.1 95.4 128.1-95.4z" fill="#BD0000" p-id="20244"></path><path d="M756.74 562.894c-3.653-7.14-7.188-12.989-11.28-18.596s-8.502-10.914-13.193-15.871c-9.383-9.914-19.89-18.427-31.214-25.127l1.1-176.3-179.9-31.5c-15.899-54.3-59.199-98.6-110.3-107.3-51.1-8.7-94.7 20.4-110.9 68.5l-179.9-31.5V390c57.1 19.2 101 81.9 100.9 148s-44 112-100.9 109.4v164.9l145.228 29.925 145.227 29.926c109.48 21.786-0.438-0.288 108.052 21.307-34.803-62.535-40.718-98.916-27.782-168.318 19.804-66.461 45.268-101.396 104.87-139.853 46.029-22.536 84.916-34.618 159.517-22.869l0.475 0.476z" fill="#DD0000" p-id="20245"></path><path d="M826.281 767.969c5.048 0 10.096 0.007 15.144-0.008 0.903-0.002 1.736 0.299 2.553 0.832 0.827 0.541 1.279 1.559 1.6 2.65 0.519 1.771 0.702 3.687 0.526 5.575-0.156 1.688-0.376 3.396-0.97 4.935-0.199 0.516-0.212 1.125-0.364 1.678-0.386 1.397-0.737 2.817-1.104 4.227-0.31 1.19-0.703 2.341-0.864 3.628-0.115 0.917-0.469 1.772-0.718 2.653-0.012 0.041-0.065 0.067-0.065 0.102-0.009 1.343-0.693 1.083-1.26 1.083-6.941 0.002-13.883 0.002-20.824 0.002-0.988 0-1.164 0.289-1.415 1.658-0.279 1.53-0.597 3.051-1.062 4.503-0.352 1.096-0.622 2.246-0.916 3.378-0.482 1.854-0.867 3.755-1.346 5.613-0.313 1.217-0.232 2.605 0.192 3.84 0.113 0.33 0.337 0.547 0.647 0.535 0.697-0.026 1.395-0.009 2.092-0.009l14.547 0.001c0.646 0 0.621-0.012 0.407 0.822a84.983 84.983 0 0 0-0.855 3.65c-0.134 0.64-0.318 0.958-0.844 0.956-9.232-0.023-18.465-0.016-27.698-0.019-0.804 0-1.649-0.036-2.36-0.491-1.054-0.674-2.02-1.482-2.284-3.482-0.206-1.555 0.081-2.864 0.313-4.265 0.063-0.389 0.086-0.791 0.14-1.184 0.242-1.746 0.711-3.374 1.187-5.016 0.289-0.999 0.575-2.021 0.801-3.063 0.363-1.677 0.81-3.31 1.235-4.955 0.378-1.46 0.826-2.884 1.115-4.397 0.225-1.181 0.604-2.301 0.907-3.452 0.223-0.847 0.384-1.734 0.658-2.544 0.442-1.308 0.576-2.76 1.029-4.07 0.288-0.836 0.413-1.802 0.686-2.673 0.373-1.197 0.588-2.471 0.886-3.701 0.192-0.795 0.412-1.6 0.686-2.369 0.299-0.841 0.457-1.783 0.686-2.677 0.156-0.611 0.329-1.213 0.49-1.821 0.152-0.576 0.127-1.219 0.375-1.775 0.104-0.236 0.169-0.356 0.355-0.352 0.315 0.009 0.631 0.002 0.946 0.002h14.746z m-1.549 22.364c1.296 0 2.591 0.006 3.886-0.007 0.161-0.001 0.365 0.128 0.463-0.235 0.458-1.703 1.035-3.36 1.358-5.113 0.263-1.424 0.652-2.775 1.001-4.134 0.451-1.763 0.981-3.486 1.336-5.302 0.022-0.11 0.08-0.206 0.099-0.317 0.238-1.439 0.238-2.493-1.004-2.438-2.14 0.093-4.283 0.025-6.426 0.025-0.613 0-0.915 0.299-1.008 1.151-0.192 1.753-0.766 3.318-1.223 4.924-0.571 2.006-0.921 4.114-1.52 6.101-0.167 0.555-0.274 1.146-0.429 1.71-0.26 0.95-0.547 1.885-0.798 2.839-0.142 0.539-0.044 0.825 0.428 0.812 1.28-0.039 2.559-0.015 3.837-0.016zM568.87 781.574c0.01-0.045 0.017-0.091 0.021-0.138 0.357-0.287 0.594-0.768 0.897-1.141v0.001c0.577-0.221 0.781-0.968 1.087-1.573l0.005-0.007c0.301-0.135 0.497-0.421 0.601-0.843l0.297-0.172c0.246-0.014 0.268-0.284 0.305-0.539l0.096-0.015c0.192-0.002 0.287-0.142 0.286-0.416a0.925 0.925 0 0 0 0.018-0.13c0.521-0.334 0.857-0.955 1.193-1.577a0.563 0.563 0 0 0 0.097-0.028c0.133 0.021 0.192-0.078 0.206-0.254a0.386 0.386 0 0 0 0.093-0.024c0.193 0.005 0.287-0.135 0.29-0.408a0.872 0.872 0 0 0 0.016-0.125c0.125-0.023 0.19-0.12 0.185-0.305l0.006-0.009c0.195 0.001 0.29-0.146 0.298-0.418l0.002-0.003c0.346-0.072 0.614-0.255 0.604-0.846 0.031-0.003 0.063-0.006 0.095-0.011 0.233-0.038 0.408-0.165 0.411-0.554a0.265 0.265 0 0 0 0.087-0.018c0.133 0.006 0.194-0.094 0.201-0.275a0.487 0.487 0 0 0 0.098-0.02c0.133 0.012 0.194-0.078 0.189-0.267 0.007-0.044 0.011-0.089 0.013-0.136 0.309-0.054 0.51-0.283 0.582-0.726l0.009-0.013c0.197 0.006 0.293-0.135 0.295-0.413l0.005-0.007c0.194 0 0.294-0.141 0.301-0.416l0.001-0.003c0.19-0.009 0.292-0.148 0.3-0.423 0.304-0.096 0.591-0.222 0.688-0.718l0.006-0.006c0.481-0.485 0.881-1.097 1.282-1.706l0.012-0.015c0.338-0.172 0.556-0.52 0.698-0.978 0.276-0.101 0.405-0.463 0.605-0.7 0.43-0.173 0.644-0.688 0.89-1.151l0.103-0.143c0.131-0.002 0.198-0.095 0.2-0.283 0.131-0.079 0.199-0.22 0.2-0.425 0.31-0.082 0.601-0.202 0.688-0.72l0.005-0.008c0.309-0.014 0.481-0.415 0.669-0.637 0.271-0.32 0.687-0.565 0.727-1.204l0.002-0.003c0.243-0.16 0.415-0.443 0.598-0.709l0.001-0.001c0.445-0.447 0.948-0.807 1.19-1.569l0.003-0.005c0.207-0.004 0.203-0.212 0.2-0.419 0.265-0.012 0.322-0.399 0.501-0.566 0.557-0.269 0.951-0.797 1.205-1.547a0.416 0.416 0 0 0 0.09-0.025c0.131 0 0.197-0.095 0.201-0.281l0.098-0.142c0.523-0.429 0.864-1.163 1.354-1.654 0.135-0.135 0.357-0.282 0.338-0.633 0.265 0.005 0.301-0.324 0.402-0.558 0.612-0.432 1.005-1.224 1.494-1.858 0.032-0.048 0.065-0.095 0.099-0.142 0.247-0.106 0.341-0.39 0.4-0.712l-0.001 0.001c0.204-0.009 0.386-0.058 0.384-0.438l0.009-0.012c0.198 0.007 0.292-0.138 0.296-0.414l0.004-0.006c0.282-0.268 0.548-0.584 0.851-0.789 0.252-0.17 0.347-0.403 0.352-0.765l-0.001 0.001c0.232-0.047 0.404-0.182 0.405-0.566a0.41 0.41 0 0 0 0.09-0.023c0.601-0.623 1.069-1.48 1.728-2.005 0.04-0.031 0.038-0.171 0.056-0.26a0.75 0.75 0 0 0 0.017-0.126c0.124-0.023 0.188-0.122 0.184-0.304l0.007-0.01c0.563-0.394 0.868-1.255 1.443-1.629 0.239-0.155 0.367-0.437 0.438-0.784l0.111-0.152c0.442-0.407 0.8-0.939 1.103-1.551l0.099-0.138c0.142-0.006 0.289-0.002 0.279-0.299l0.014-0.018c0.131 0.018 0.195-0.077 0.211-0.254a0.364 0.364 0 0 0 0.091-0.021c0.136-0.07 0.196-0.213 0.193-0.416l0.004-0.006c0.398-0.217 0.61-0.729 0.89-1.136l0.006-0.012c0.395-0.188 0.682-0.534 0.812-1.116a0.282 0.282 0 0 0 0.089-0.021c0.13 0.006 0.195-0.087 0.199-0.271v-0.001a8.124 8.124 0 0 0 1.176-1.574l0.016-0.021c0.198 0.013 0.293-0.124 0.287-0.406l0.012-0.017c0.198 0.011 0.292-0.133 0.294-0.409l0.007-0.008c0.379-0.283 0.67-0.719 0.977-1.13l0.124-0.419c0.258-0.028 0.499-0.085 0.501-0.571l-0.002 0.001c0.213 0.021 0.31-0.129 0.307-0.426a0.31 0.31 0 0 0 0.089-0.02c0.252-0.095 0.336-0.384 0.397-0.7l0.101-0.019c0.344-0.26 0.597-0.653 0.802-1.118l0.099-0.138c0.526-0.303 0.779-1.04 1.182-1.521 0.691-0.829 1.368-1.664 1.99-2.603 0.436-0.655 1.024-1.114 1.425-1.803 0.763-1.313 1.829-2.146 2.572-3.463 0.5-0.886 1.221-1.412 1.729-2.252 0.883-1.46 1.959-2.616 2.914-3.96 1.06-1.49 2.176-2.897 3.26-4.353 1.055-1.417 2.028-2.974 3.37-3.881 0.689-0.466 1.418-0.44 2.051 0.031 1.124 0.84 1.561 2.352 1.63 4.101 0.028 0.701 0.025 1.403 0.018 2.108-0.145 12.723 0.173 25.45-0.188 38.175-0.148 5.214-0.02 10.443-0.035 15.666-0.004 1.234 0.052 2.452-0.264 3.69-0.344 1.345-0.7 2.69-1.017 4.054-0.295 1.27-0.744 2.471-1.006 3.752a59.457 59.457 0 0 1-1.25 5.073c-0.493 1.657-0.845 3.374-1.276 5.054-0.414 1.611-0.916 3.174-1.266 4.824-0.311 1.465-0.696 2.899-1.097 4.32-0.145 0.515-0.225 1.056-0.404 1.562-0.278 0.782-0.527 1.61-0.673 2.46-0.296 1.729-0.771 3.37-1.247 4.991a101.459 101.459 0 0 0-1.585 6.074c-0.298 1.308-0.723 2.536-1.052 3.818-0.323 1.258-0.584 2.564-0.998 3.783-0.347 1.021-0.611 2.101-0.927 3.145-0.132 0.439-0.346 0.678-0.728 0.617-1.312-0.206-2.508-0.657-3.317-2.358-0.295-0.621-0.563-1.275-0.692-1.954-0.176-0.92-0.201-1.912-0.221-2.876-0.034-1.681 0.069-3.364 0.07-5.042 0.024-22.29 0.018-44.581 0.016-66.872 0-0.246 0.06-0.516-0.071-0.76-0.575 0.451-1.011 1.144-1.466 1.758-1.283 1.732-2.552 3.484-3.889 5.135-0.709 0.875-1.308 1.915-2.048 2.759-0.58 0.661-1.077 1.47-1.668 2.139-0.561 0.634-0.961 1.556-1.52 2.192-0.524 0.599-1.034 1.204-1.493 1.899-0.463 1.034-1.3 1.508-1.822 2.411-0.729 1.259-1.686 2.134-2.458 3.302-0.22-0.031-0.227 0.299-0.349 0.438-0.596 0.683-1.202 1.364-1.73 2.147-0.846 1.252-1.709 2.465-2.636 3.597-1.305 1.595-2.478 3.398-3.774 5.01-0.858 1.067-1.623 2.284-2.485 3.353-0.457 0.566-0.958 1.143-1.262 1.867-0.779 1.858-1.633 3.698-1.8 5.946l-0.01 1.137-0.001 0.855 0.007 0.568c0.002 1.522 0.43 2.804 1.146 3.88 0.289 0.434 0.511 0.949 0.876 1.304 0.912 0.882 1.966 0.989 2.986 1.047 1.987 0.112 3.98 0.038 5.972 0.038 5.642 0.003 11.282 0.003 16.924 0.011 0.152 0 0.364-0.13 0.447 0.147 0.089 0.296-0.142 0.392-0.25 0.541-1.239 1.709-2.438 3.479-3.672 5.195a139.532 139.532 0 0 0-2.665 3.887c-0.263 0.394-0.367 1.035-0.708 1.226-0.737 0.411-0.972 1.517-1.561 2.104-0.349 0.347-0.42 1.11-0.867 1.254-0.275 0.089-0.421 0.313-0.479 0.618-0.078 0.406-0.281 0.743-0.479 0.863-0.646 0.393-0.974 1.282-1.432 1.908a67.44 67.44 0 0 0-1.909 2.763c-0.27 0.41-0.608 0.755-0.788 1.285l-0.002 0.002c-0.414 0.151-0.482 0.736-0.698 1.137l-0.297 0.179c-0.373 0.337-0.648 0.79-0.8 1.388-0.217-0.023-0.179 0.316-0.299 0.431-0.192 0.01-0.291 0.151-0.296 0.426-0.295 0.042-0.417 0.421-0.572 0.681-0.193 0.322-0.493 0.483-0.621 0.889-0.22 0.194-0.468 0.117-0.704 0.151l-11.458-0.015c-0.148-0.215-0.328-0.12-0.5-0.102l-0.994-0.026-0.3-0.006-0.201-0.006c-0.187-0.547-0.532-0.18-0.795-0.282l-0.702-0.144c-0.263-0.59-0.667-0.155-0.993-0.282l-0.003-0.003c-0.013-0.281-0.146-0.292-0.296-0.271l-0.29-0.026c-0.263-0.2-0.481-0.533-0.807-0.543a25.78 25.78 0 0 0-0.104-0.015c-0.006-0.292-0.147-0.291-0.294-0.277l-0.208-0.151c-0.005-0.296-0.15-0.279-0.293-0.271-0.068-0.175-0.188-0.149-0.3-0.156-0.006-0.291-0.148-0.292-0.295-0.287-0.192-0.514-0.551-0.667-0.897-0.846-0.1-0.098-0.146-0.305-0.299-0.291-0.521-0.782-1.101-1.471-1.694-2.135l-0.101-0.147c0.001-0.188-0.068-0.279-0.196-0.29a1.244 1.244 0 0 0-0.01-0.137c0.003-0.189-0.063-0.277-0.194-0.266l-0.011-0.014c-0.084-0.439-0.293-0.708-0.582-0.865l-0.015-0.279c-0.146-0.39-0.317-0.749-0.587-0.989-0.003-0.118-0.014-0.23-0.095-0.296-0.006-0.186-0.073-0.278-0.203-0.277-0.008-0.049-0.016-0.098-0.022-0.147 0.019-0.287-0.09-0.408-0.274-0.431h0.001a3.939 3.939 0 0 0-0.308-1.403c-0.188-0.419-0.159-1-0.495-1.29l-0.004-0.008c-0.031-0.332 0.007-0.712-0.291-0.86l-0.013-0.281c-0.121-0.317 0.049-0.807-0.287-0.997l-0.001-0.001c-0.13-0.413 0.057-0.976-0.298-1.281-0.032-0.238-0.064-0.478-0.098-0.715-0.068-0.331 0.165-0.786-0.201-0.995-0.306-2.119-0.201-4.266-0.188-6.401 0.008-1.336 0.121-2.67 0.188-4.005 0.343-0.428 0.241-1.024 0.29-1.564l0.007-0.15c0.324-0.582 0.409-1.284 0.495-1.986 0.075-0.177 0.114-0.367 0.104-0.574 0.259-0.049 0.18-0.343 0.201-0.564 0.113-0.107 0.096-0.274 0.098-0.433 0.407-0.595 0.576-1.346 0.688-2.134l0.107-0.295c0.198-0.01 0.206-0.205 0.199-0.416a0.797 0.797 0 0 0 0.007-0.129c0.077-0.033 0.208-0.037 0.224-0.101 0.175-0.701 0.537-1.246 0.753-1.91a1.04 1.04 0 0 0 0.017-0.138c0.128-0.007 0.195-0.102 0.198-0.287 0.215 0.021 0.315-0.118 0.298-0.428l0.101-0.289c0.205-0.01 0.202-0.216 0.196-0.425l0.002-0.003c0.285-0.141 0.488-0.412 0.573-0.846zM795.487 774.74v2.99c-0.282 1.045-0.387 2.188-0.453 3.25-0.105 1.69-0.661 3.109-1.028 4.624-0.326 1.346-0.795 2.651-1.058 4.025a46.573 46.573 0 0 1-1.213 4.86c-0.647 2.122-0.962 4.393-1.619 6.495-0.265 0.847-0.45 1.743-0.69 2.601-0.256 0.913-0.543 1.794-0.618 2.782l-0.093 0.427c-0.126 0.159-0.186 0.357-0.239 0.592-0.153 0.658-0.396 1.278-0.519 1.945-0.179 0.977-0.55 1.842-0.726 2.817a29.225 29.225 0 0 1-0.598 2.631c-0.467 1.682-0.825 3.425-1.368 5.067-0.122 0.369-0.22 0.488-0.488 0.487-4.365-0.009-8.73-0.011-13.097 0.003-0.397 0.002-0.484-0.197-0.308-0.663 0.637-1.673 0.893-3.544 1.35-5.31 0.23-0.891 0.546-1.732 0.721-2.662 0.068-0.365 0.115-0.77 0.251-1.126 0.307-0.799 0.483-1.668 0.666-2.541 0.231-1.106 0.533-2.185 0.818-3.268 0.241-0.913 0.523-1.805 0.747-2.727 0.205-0.849 0.393-1.714 0.596-2.558 0.24-0.996 0.504-1.994 0.769-2.984 0.329-1.234 0.685-2.454 0.959-3.721 0.302-1.396 0.662-2.766 1.021-4.134 0.149-0.568 0.275-1.151 0.433-1.707 0.267-0.94 0.526-1.882 0.756-2.842 0.289-1.213 0.525-2.462 0.897-3.621 0.515-1.606 0.285-3.87-0.537-5.185-1.105-1.769-2.508-2.432-4.12-2.419-0.297 0.003-0.439 0.109-0.506 0.553-0.07 0.473-0.195 0.94-0.35 1.372-0.429 1.199-0.689 2.497-1.043 3.736-0.519 1.82-0.894 3.724-1.395 5.567-0.398 1.465-0.824 2.932-1.124 4.466-0.31 1.582-0.822 3.081-1.215 4.632-0.394 1.552-0.732 3.134-1.126 4.686a205.43 205.43 0 0 1-1.594 5.99 3.978 3.978 0 0 0-0.169 1.211 1.57 1.57 0 0 0-0.006 0.137c-0.179 0.013-0.205 0.221-0.227 0.401-0.111 0.952-0.542 1.729-0.702 2.668-0.07 0.406-0.129 0.881-0.303 1.244-0.695 1.449-0.916 3.213-1.584 4.696-0.511 1.135-1.063 2.215-1.774 3.051-0.69 0.813-1.486 1.399-2.363 1.876-1.358 0.74-2.707 1.174-4.145 1.171-2.64-0.004-5.279-0.001-7.92-0.001-0.116 0-0.232 0.006-0.349-0.003-0.21-0.015-0.337-0.1-0.167-0.427 0.237-0.461 0.269-1.04 0.427-1.552 0.459-1.48 0.696-3.077 1.111-4.588a138.04 138.04 0 0 0 1.307-5.095c0.323-1.386 0.65-2.78 1.041-4.138 0.253-0.878 0.49-1.763 0.696-2.671 0.169-0.746 0.484-1.446 0.573-2.225 0.134-1.174 0.529-2.213 0.815-3.29 0.386-1.45 0.769-2.904 1.123-4.372 0.102-0.421 0.116-0.888 0.229-1.3 0.692-2.519 1.481-4.976 1.991-7.604 0.306-1.575 0.782-3.1 1.208-4.627a78.4 78.4 0 0 0 1.002-3.971c0.282-1.264 0.676-2.461 0.96-3.72 0.264-1.168 0.744-2.227 0.889-3.455 0.095-0.796 0.286-1.55 0.521-2.262 0.555-1.683 1.001-3.433 1.389-5.191 0.279-1.269 0.618-2.505 0.906-3.767 0.377-1.651 0.947-3.21 1.248-4.905 0.249-1.403 0.729-2.684 1.051-4.052 0.141-0.601 0.24-1.243 0.469-1.822 0.244-0.619 0.504-1.308 0.542-1.989 0.04-0.712 0.23-1.339 0.402-1.928 0.497-1.712 0.862-3.497 1.421-5.171 0.316-0.948 0.404-1.995 0.764-2.945 0.565-1.493 1.314-2.771 2.04-4.078 0.403-0.726 0.964-1.251 1.461-1.854 0.759-0.924 1.524-1.882 2.418-2.42 1.188-0.717 2.339-1.712 3.693-1.758 0.121-0.005 0.171-0.117 0.189-0.272l0.103-0.006 7.361-0.001c1.01 0 1.01 0 0.701 1.35-0.011 0.045-0.021 0.089-0.033 0.133-0.364 1.261-0.778 2.499-1.08 3.79-0.332 1.422-0.879 2.748-0.964 4.283l-0.012 0.138c-0.055 0.085-0.134 0.157-0.16 0.258-0.31 1.193-0.546 2.436-0.93 3.577-0.579 1.723-0.829 3.6-1.346 5.35-0.358 1.215-0.577 2.519-0.968 3.709-0.439 1.34-0.614 2.793-1.003 4.148-0.284 0.988-0.551 1.988-0.816 2.987-0.226 0.846-0.482 1.682-0.647 2.552-0.259 1.356-0.637 2.654-0.973 3.965-0.356 1.391-0.769 2.764-1.1 4.167-0.298 1.258-0.545 2.534-0.967 3.727-0.283 0.803-0.177 1.036 0.441 1.036 4.065 0.001 8.132 0 12.198 0.003 0.23 0 0.459 0.021 0.691 0.068 0.663 0.138 1.286 0.424 1.913 0.762 0.492 0.266 0.841 0.736 1.175 1.248 0.212 0.325 0.382 0.703 0.663 0.924a0.981 0.981 0 0 0 0.012 0.132c0.301 1.168 0.5 2.369 0.705 3.568zM662.457 807.65l-0.01 0.403c-0.434 0.06-0.243 0.552-0.298 0.874-0.078 0.07-0.087 0.184-0.09 0.301-0.199 0.011-0.203 0.207-0.193 0.417l-0.107 0.431c-0.129 0.004-0.199 0.088-0.19 0.282l-0.105 0.44c-0.437 0.454-0.481 1.215-0.706 1.835-0.078 0.065-0.09 0.174-0.093 0.289-0.247 0.121-0.504 0.229-0.5 0.711-0.176 0.107-0.329 0.239-0.307 0.565-0.099 0.271-0.342 0.386-0.384 0.72-0.3 0.125-0.485 0.389-0.5 0.855l-0.003 0.004c-0.124 0.006-0.197 0.092-0.208 0.273a0.561 0.561 0 0 0-0.091 0.027c-0.26-0.01-0.295 0.247-0.308 0.53-0.423 0.039-0.541 0.699-0.89 0.891-0.134-0.014-0.192 0.086-0.195 0.269l-0.104 0.139c-0.392 0.215-0.728 0.544-1.008 0.99-0.141-0.011-0.268 0.051-0.387 0.153-0.7 0.504-1.469 0.738-2.193 1.147l-0.995 0.143-0.698 0.001h-14.846c-0.242 0.073-0.603-0.264-0.701 0.304-0.102 0.576-0.258 1.121-0.388 1.681-0.043 0.281-0.137 0.549-0.109 0.848-0.126 0.015-0.196 0.1-0.185 0.292l-0.02 0.423c-0.309 0.813-0.682 1.591-0.69 2.567v0.001c-0.313 0.098-0.161 0.459-0.199 0.712-0.141 0.151-0.087 0.372-0.101 0.569-0.337 0.36-0.305 0.926-0.389 1.427l-0.017 0.412c-0.213 0.66-0.604 1.213-0.589 2.009a1.275 1.275 0 0 0-0.102 0.568c-0.085 0.02-0.166 0.054-0.188 0.192-0.2 1.298-0.65 2.467-0.954 3.712-0.141 0.577-0.192 1.173-0.327 1.733-0.205 0.852-0.501 1.656-0.797 2.459-0.495 1.344-1.074 2.6-1.792 3.717-0.742 1.155-1.69 1.868-2.669 2.532-0.952 0.646-1.928 1.151-2.988 1.179-1.395 0.035-2.789 0.014-4.185 0.016-1.212 0.001-2.425 0.003-3.637-0.002-0.164-0.001-0.365 0.113-0.312-0.37 0.146-1.313 0.595-2.474 0.896-3.703 0.392-1.597 0.878-3.15 1.203-4.783 0.294-1.48 0.764-2.86 1.136-4.297 0.241-0.934 0.55-1.836 0.707-2.808 0.223-1.373 0.672-2.622 1.004-3.934 0.327-1.288 0.66-2.574 1.021-3.843 0.201-0.708 0.209-1.507 0.504-2.16 0.166-0.366 0.212-0.778 0.298-1.179 0.114-0.533 0.192-1.094 0.361-1.591 0.441-1.295 0.746-2.663 1.104-4.002 0.122-0.459 0.109-1 0.26-1.433 0.434-1.251 0.7-2.594 1.095-3.867 0.586-1.892 0.892-3.933 1.463-5.84 0.228-0.761 0.382-1.579 0.597-2.343 0.249-0.885 0.506-1.768 0.678-2.684 0.132-0.704 0.349-1.36 0.497-2.054 0.309-1.435 0.744-2.813 1.133-4.213a29.44 29.44 0 0 0 0.578-2.495c0.271-1.447 0.752-2.813 1.115-4.229 0.294-1.143 0.675-2.223 0.868-3.44a15.197 15.197 0 0 1 1.043-3.581c0.643-1.499 1.126-3.139 2.059-4.372 0.452-0.597 0.768-1.405 1.22-2.002 0.728-0.962 1.547-1.769 2.367-2.566 1.124-1.096 2.344-1.852 3.717-1.854 9.798-0.018 19.596-0.01 29.394-0.01h0.502c-0.087 0.423-0.129 0.829-0.25 1.181a24.512 24.512 0 0 0-0.915 3.597c-0.204 1.138-0.53 2.208-0.828 3.271-0.562 2-1.113 4.002-1.566 6.053a54.057 54.057 0 0 1-1 3.851c-0.501 1.667-0.767 3.438-1.279 5.094-0.371 1.199-0.599 2.519-0.993 3.686-0.47 1.386-0.555 2.924-1.045 4.274-0.299 0.822-0.476 1.72-0.735 2.569-0.283 0.93-0.452 1.931-0.67 2.9a0.745 0.745 0 0 0-0.001 0.125c-0.247 0.21-0.185 0.557-0.19 0.874l-0.092 0.427c-0.109 0.159-0.248 0.299-0.203 0.571l-0.105 0.711c-0.209 0.01-0.202 0.221-0.2 0.428z m-9.985-34.766c-0.73 0-1.463 0.06-2.19-0.013-1.376-0.138-2.054 1.236-2.405 2.646-0.325 1.31-0.7 2.597-1.015 3.914-0.298 1.246-0.535 2.526-0.916 3.745-0.313 1.005-0.489 2.127-0.801 3.129-0.405 1.309-0.563 2.724-0.997 4.011-0.288 0.852-0.482 1.769-0.713 2.659-0.271 1.042-0.587 2.068-0.787 3.138-0.148 0.794-0.345 1.562-0.53 2.331-0.353 1.466-0.795 2.888-1.155 4.351-0.214 0.867-0.381 1.782-0.613 2.618-0.466 1.68-0.832 3.411-1.336 5.072-0.4 1.315-0.672 2.712-1.011 4.067-0.069 0.28 0.021 0.366 0.176 0.351 1.426-0.138 2.858 0.272 4.284-0.244 0.879-0.318 1.642-0.79 2.317-1.681 0.892-1.175 1.409-2.661 1.687-4.252 0.23-1.326 0.614-2.56 0.929-3.822 0.351-1.411 0.728-2.823 1.134-4.209 0.147-0.502 0.085-1.03 0.228-1.484 0.648-2.052 1.178-4.166 1.727-6.272 0.132-0.504 0.162-1.031 0.308-1.519 0.24-0.809 0.484-1.63 0.668-2.453 0.237-1.064 0.52-2.117 0.811-3.137 0.378-1.321 0.576-2.717 0.974-4.021 0.277-0.909 0.504-1.852 0.73-2.79 0.281-1.163 0.717-2.251 0.883-3.466 0.102-0.743 0.321-1.427 0.497-2.119 0.14-0.551 0.052-0.55-0.242-0.55h-2.642zM667.037 818.912c-0.053-0.188-0.149-0.29-0.294-0.294-0.106-0.375 0.042-0.892-0.306-1.135l-0.007-0.286a1.46 1.46 0 0 0-0.091-0.714c0.034-0.76 0.067-1.52 0.102-2.279 0.387-0.257 0.113-0.766 0.211-1.133 0.106-0.115 0.085-0.282 0.087-0.439 0.215-0.031 0.176-0.271 0.203-0.476 0.108-0.788 0.286-1.552 0.397-2.343 0.098-0.691 0.431-1.293 0.482-2.023l0.015-0.28c0.358-0.676 0.592-1.418 0.598-2.282 0.372-0.559 0.51-1.26 0.59-1.995 0.006-0.046 0.008-0.093 0.009-0.14 0.198-0.021 0.2-0.22 0.189-0.43l0.001-0.283 0.005-0.431 0.001-0.003c0.056-0.042 0.152-0.072 0.161-0.128 0.149-1.002 0.568-1.864 0.723-2.861l0.017-0.421c0.276-0.092 0.281-0.404 0.285-0.718l0.012-0.286c0.319-0.133 0.188-0.567 0.279-0.854 0.007-0.141 0.015-0.281 0.021-0.422 0.297-0.149 0.262-0.528 0.292-0.862l0.003-0.005c0.331-0.312 0.25-0.825 0.306-1.271 0.149-0.204 0.078-0.472 0.1-0.713 0.111-0.106 0.097-0.271 0.096-0.43v0.001c0.199-0.021 0.202-0.218 0.19-0.43l0.109-0.707c0.312-0.372 0.44-0.875 0.498-1.429v0.001c7.425-0.001 14.851-0.006 22.275 0.007 0.383 0.001 0.616-0.085 0.545-0.719 0.078-0.067 0.093-0.176 0.095-0.294 0.347-0.249 0.232-0.769 0.333-1.162 0.339-1.322 0.672-2.649 1.014-3.971 0.247-0.955 0.543-1.889 0.747-2.861 0.234-1.114 0.626-2.14 0.816-3.28 0.132-0.786 0.413-1.518 0.592-2.291 0.365-1.583 0.446-3.047-1.185-2.981-2.688 0.107-5.38 0.027-8.07 0.027-2.873 0-5.746 0.002-8.619-0.001-0.461 0-0.61-0.28-0.416-0.784 0.328-0.855 0.519-1.792 0.79-2.678 0.162-0.531 0.121-1.391 0.824-1.39 9.283 0.016 18.566 0.009 27.85 0.015 0.93 0.001 1.84 0.344 2.62 0.979 1.133 0.924 1.617 2.559 1.728 4.363 0.096 1.573-0.208 3.086-0.476 4.605-0.271 1.545-0.738 2.977-1.132 4.45-0.11 0.415-0.061 0.838-0.218 1.271-0.266 0.729-0.459 1.54-0.634 2.332-0.23 1.043-0.479 2.104-0.789 3.069-0.443 1.374-0.616 2.85-1.022 4.221-0.234 0.791-0.411 1.616-0.653 2.401-0.368 1.193-0.695 2.415-0.922 3.669-0.204 1.135-0.604 2.148-0.836 3.262a28.19 28.19 0 0 1-0.694 2.6c-0.269 0.865-0.389 1.79-0.607 2.674-0.275 1.115-0.615 2.194-0.891 3.313-0.154 0.624-0.268 1.273-0.479 1.886-0.283 0.82-0.521 1.695-0.597 2.627l-0.004 0.287c-0.195 0.02-0.207 0.211-0.194 0.426l-0.014 0.411c-0.089 0.104-0.243 0.193-0.254 0.312-0.093 0.958-0.469 1.776-0.631 2.696-0.039 0.331-0.224 0.384-0.407 0.414-0.131 0.021-0.265 0.006-0.397 0.006l-32.28 0.004c-0.184-0.229-0.396-0.111-0.6-0.101l-0.894-0.04c-0.178-0.487-0.529-0.284-0.798-0.412a0.41 0.41 0 0 0-0.099-0.016c-0.037-0.33-0.218-0.376-0.401-0.413a3.137 3.137 0 0 0-0.095-0.016c-0.002-0.203-0.001-0.412-0.205-0.416z m22.336-23.516c-1.312 0-2.622 0.006-3.933-0.006-0.271-0.003-0.418 0.1-0.583 0.466-0.25 0.558-0.221 1.204-0.424 1.771a19.454 19.454 0 0 0-0.692 2.528 81.525 81.525 0 0 1-0.907 3.846c-0.374 1.429-0.85 2.802-1.146 4.272-0.096 0.475-0.15 0.968-0.256 1.438-0.271 1.201-0.487 2.417-0.432 3.688 0.032 0.738 0.56 1.505 0.99 1.506 2.091 0.006 4.182-0.002 6.273 0.01 0.331 0.002 0.512-0.203 0.627-0.631 0.246-0.911 0.477-1.83 0.709-2.747 0.486-1.918 0.967-3.842 1.526-5.725 0.464-1.557 0.766-3.209 1.173-4.804 0.429-1.676 0.911-3.323 1.3-5.024 0.158-0.693-0.004-0.587-0.293-0.587l-3.932-0.001zM728.926 802.949l-0.003 2.278c-0.056 0.974 0.14 1.911 0.203 2.868 0.012 0.172 0.087 0.24 0.194 0.264 0.011 0.197-0.046 0.419 0.095 0.572 0.013 0.67 0.198 1.206 0.592 1.583l0.009 0.27c0.06 0.439 0.248 0.745 0.498 0.989l0.004 0.004c0.048 0.539 0.26 0.903 0.595 1.134l0.004 0.007c0 0.184 0.061 0.279 0.193 0.265l0.193 0.04c0.57 1.182 1.461 1.635 2.361 1.658 3.266 0.088 6.532 0.035 9.799 0.035l0.746-0.001c0.303-0.002 0.438 0.093 0.263 0.586-0.175 0.489-0.274 1.032-0.407 1.552l-0.01 0.282c-0.097 0.286-0.311 0.491-0.291 0.858-0.141 0.15-0.085 0.372-0.102 0.568-0.127 0.01-0.197 0.098-0.195 0.287-0.004 0.091-0.006 0.183-0.009 0.274-0.165 0.127-0.2 0.337-0.182 0.581l-0.009 0.285-0.303 0.15c-7.809-0.004-15.618-0.006-23.428-0.018-0.428-0.001-0.854-0.083-1.282-0.127l-0.3-0.006a0.605 0.605 0 0 0-0.096-0.005c-0.018-0.153-0.067-0.26-0.188-0.271-0.456-0.047-0.877-0.261-1.31-0.467-0.424-0.201-0.817-0.603-1.296-0.543l-0.047-0.004-0.047 0.001c-0.357-0.354-0.661-0.83-1.102-0.995a12.062 12.062 0 0 0-0.104-0.133c-0.178-0.451-0.509-0.612-0.795-0.859l-0.001-0.001c-0.066-0.313-0.044-0.726-0.396-0.718l0.002 0.001c-0.008-0.184-0.08-0.269-0.204-0.276l-0.01-0.147c0.012-0.192-0.06-0.279-0.186-0.293a1.233 1.233 0 0 0-0.013-0.135c-0.054-0.268-0.069-0.571-0.169-0.797-0.33-0.746-0.532-1.535-0.522-2.425 0.002-0.212 0.016-0.442-0.195-0.481v-2.426c0.108-0.028 0.205-0.108 0.185-0.273-0.125-1.029 0.347-1.885 0.395-2.861l0.021-0.421c0.198-0.021 0.202-0.222 0.193-0.432l0.092-0.427c0.229-0.207 0.228-0.525 0.204-0.855l0.008-0.427c0.336-0.254 0.284-0.715 0.3-1.14 0.297-0.49 0.47-1.056 0.504-1.705 0.107-0.111 0.087-0.277 0.093-0.433 0.333-0.257 0.289-0.713 0.295-1.142l0.002-0.004c0.324-0.418 0.325-1.045 0.495-1.562l0.012-0.281c0.358-0.368 0.3-0.907 0.287-1.429a1.07 1.07 0 0 0 0.006-0.139c0.357-0.176 0.281-0.617 0.299-1 0.263-0.05 0.18-0.347 0.199-0.57l0.104-0.709c0.361-0.567 0.513-1.261 0.59-2l0.002-0.003c0.056-0.043 0.156-0.078 0.16-0.13 0.091-1.106 0.633-1.983 0.748-3.079 0.1-0.95 0.426-1.793 0.673-2.674 0.245-0.879 0.461-1.775 0.689-2.664l0.022-0.427c0.336-0.188 0.271-0.619 0.295-0.997l0.002-0.004c0.084-0.021 0.167-0.052 0.183-0.194 0.15-1.347 0.661-2.455 1.118-3.612 0.183-0.462 0.598-0.7 0.596-1.315 0.032-0.051 0.064-0.101 0.097-0.15 0.442-0.421 0.709-1.088 1.066-1.624 0.174-0.261 0.584-0.231 0.539-0.784a0.315 0.315 0 0 0 0.09-0.019c0.343-0.265 0.736-0.455 0.799-1.126 0.382-0.105 0.664-0.421 0.89-0.859l0.104-0.008c0.235-0.303 0.635-0.226 0.793-0.704l0.104-0.019c0.362-0.136 0.643-0.45 0.888-0.838 0.036-0.01 0.071-0.021 0.107-0.03 0.199 0.026 0.289-0.122 0.305-0.389l-0.001 0.001c0.233-0.044 0.543 0.124 0.595-0.432l0.199-0.02c0.188-0.079 0.431-0.026 0.496-0.409l0.103-0.007c0.201-0.08 0.491 0.229 0.593-0.279l0.004-0.004c0.81-0.135 1.563-0.595 2.409-0.591 8.502 0.04 17.003 0.03 25.505 0.009 0.482-0.001 0.678 0.181 0.578 0.87-0.111 0.105-0.088 0.272-0.094 0.427-0.27 0.102-0.235 0.439-0.273 0.721-0.008 0.145-0.015 0.288-0.021 0.433-0.319 0.196-0.226 0.642-0.292 0.99-0.07 0.319-0.142 0.639-0.114 0.981-0.117 0.121-0.287 0.17-0.295 0.44l-18.033 0.011c-0.192 0.153-0.506-0.042-0.59 0.422-0.082 0.005-0.162 0.019-0.209 0.137-0.14-0.003-0.235 0.073-0.335 0.234-0.67 1.073-0.988 2.342-1.061 3.756l-0.103 0.424c-0.201 0.019-0.194 0.229-0.192 0.432l-0.104 0.711c-0.37 0.788-0.529 1.71-0.79 2.566l-0.102 0.714c-0.181 0.015-0.187 0.207-0.215 0.397-0.061 0.405-0.137 0.805-0.282 1.168a1.265 1.265 0 0 0-0.101 0.569c-0.168 0.823-0.434 1.594-0.641 2.392-0.281 1.084-0.672 2.127-0.762 3.304l0.001-0.001c-0.128 0.01-0.196 0.099-0.186 0.29l-0.11 0.856c-0.198 0.018-0.204 0.214-0.194 0.425a1.224 1.224 0 0 0-0.101 0.572c-0.314 0.098-0.171 0.451-0.195 0.711l-0.01 0.423c-0.199 0.021-0.198 0.223-0.192 0.431l-0.104 0.717c-0.197 0.018-0.203 0.212-0.19 0.423l-0.106 0.57a4.54 4.54 0 0 0-0.502 1.852c-0.073 0.175-0.11 0.363-0.101 0.568-0.338 0.411-0.402 0.999-0.494 1.568-0.034 0.238-0.067 0.476-0.102 0.713-0.261 0.054-0.182 0.345-0.196 0.57l-0.102 0.998c-0.186 0.356-0.067 0.761-0.091 1.142z" fill="#FFFFFF" p-id="20246"></path></svg>