<?xml version="1.0" standalone="no"?><!DOCTYPE svg PUBLIC "-//W3C//DTD SVG 1.1//EN" "http://www.w3.org/Graphics/SVG/1.1/DTD/svg11.dtd"><svg t="1761581054872" class="icon" viewBox="0 0 1024 1024" version="1.1" xmlns="http://www.w3.org/2000/svg" p-id="141606" xmlns:xlink="http://www.w3.org/1999/xlink" width="200" height="200"><path d="M512.901 512.325m-486.906 0a486.906 486.906 0 1 0 973.812 0 486.906 486.906 0 1 0-973.812 0Z" fill="#F9BB23" p-id="141607"></path><path d="M417.582 703.369l-95.315 76.091h-2.96V348.454c0-57.006 46.251-103.274 103.251-103.274h180.689c57.022 0.022 103.241 46.256 103.25 103.274V779.47h-2.949L512.907 627.275l-95.325 76.094z m18.696-162.141l76.629-53.234 76.619 53.234-27.157-89.261 74.49-56.459-93.3-1.884-30.652-88.2-30.662 88.2-93.289 1.884 74.478 56.459-27.156 89.261z" fill="#FFFFFF" p-id="141608"></path></svg>